<mxfile host="app.diagrams.net">
  <diagram name="Identity Platform Microservice" id="identity-platform-diagram">
    <mxGraphModel dx="1000" dy="600" grid="1" gridSize="10" guides="1" tooltips="1" connect="1" arrows="1" fold="1" page="1" pageScale="1" pageWidth="827" pageHeight="1169" math="0" shadow="0">
      <root>
        <mxCell id="0" />
        <mxCell id="1" parent="0" />
        <!-- User -->
        <mxCell id="2" value="User" style="ellipse;whiteSpace=wrap;html=1;fillColor=#dae8fc;strokeColor=#6c8ebf;" vertex="1" parent="1">
          <mxGeometry x="60" y="180" width="80" height="80" as="geometry" />
        </mxCell>
        <!-- Fiber API Service -->
        <mxCell id="3" value="Go Fiber API Service" style="rounded=1;whiteSpace=wrap;html=1;fillColor=#fff2cc;strokeColor=#d6b656;" vertex="1" parent="1">
          <mxGeometry x="200" y="150" width="160" height="140" as="geometry" />
        </mxCell>
        <!-- Handlers -->
        <mxCell id="4" value="Handlers (Login, SignUp, ValidateToken)" style="rounded=1;whiteSpace=wrap;html=1;fillColor=#e1d5e7;strokeColor=#9673a6;" vertex="1" parent="1">
          <mxGeometry x="400" y="120" width="200" height="200" as="geometry" />
        </mxCell>
        <!-- Service Layer -->
        <mxCell id="5" value="Service Layer (AuthenticateUser, SignUpUser, ValidateIDToken)" style="rounded=1;whiteSpace=wrap;html=1;fillColor=#d5e8d4;strokeColor=#82b366;" vertex="1" parent="1">
          <mxGeometry x="650" y="120" width="220" height="200" as="geometry" />
        </mxCell>
        <!-- Google Identity Platform -->
        <mxCell id="6" value="Google Cloud Identity Platform" style="rounded=1;whiteSpace=wrap;html=1;fillColor=#f8cecc;strokeColor=#b85450;" vertex="1" parent="1">
          <mxGeometry x="920" y="180" width="180" height="80" as="geometry" />
        </mxCell>
        <!-- Arrows -->
        <mxCell id="7" style="edgeStyle=orthogonalEdgeStyle;endArrow=block;html=1;strokeColor=#6c8ebf;" edge="1" parent="1" source="2" target="3">
          <mxGeometry relative="1" as="geometry" />
        </mxCell>
        <mxCell id="8" style="edgeStyle=orthogonalEdgeStyle;endArrow=block;html=1;strokeColor=#d6b656;" edge="1" parent="1" source="3" target="4">
          <mxGeometry relative="1" as="geometry" />
        </mxCell>
        <mxCell id="9" style="edgeStyle=orthogonalEdgeStyle;endArrow=block;html=1;strokeColor=#9673a6;" edge="1" parent="1" source="4" target="5">
          <mxGeometry relative="1" as="geometry" />
        </mxCell>
        <mxCell id="10" style="edgeStyle=orthogonalEdgeStyle;endArrow=block;html=1;strokeColor=#82b366;" edge="1" parent="1" source="5" target="6">
          <mxGeometry relative="1" as="geometry" />
        </mxCell>
        <!-- Response Arrows -->
        <mxCell id="11" style="edgeStyle=orthogonalEdgeStyle;endArrow=open;dashed=1;html=1;strokeColor=#b85450;" edge="1" parent="1" source="6" target="5">
          <mxGeometry relative="1" as="geometry" />
        </mxCell>
        <mxCell id="12" style="edgeStyle=orthogonalEdgeStyle;endArrow=open;dashed=1;html=1;strokeColor=#82b366;" edge="1" parent="1" source="5" target="4">
          <mxGeometry relative="1" as="geometry" />
        </mxCell>
        <mxCell id="13" style="edgeStyle=orthogonalEdgeStyle;endArrow=open;dashed=1;html=1;strokeColor=#9673a6;" edge="1" parent="1" source="4" target="3">
          <mxGeometry relative="1" as="geometry" />
        </mxCell>
        <mxCell id="14" style="edgeStyle=orthogonalEdgeStyle;endArrow=open;dashed=1;html=1;strokeColor=#d6b656;" edge="1" parent="1" source="3" target="2">
          <mxGeometry relative="1" as="geometry" />
        </mxCell>
      </root>
    </mxGraphModel>
  </diagram>
</mxfile>
